<svg xmlns="http://www.w3.org/2000/svg" viewBox="0 0 388 96" role="img" aria-label="Serplore logo">
  <rect x="8" y="8" width="80" height="80" rx="18" fill="#FF4500"/>
  <path fill="#fff" d="M69.5 28H43.8c-10 0-18 6.6-18 15.3 0 8.1 6.5 14.1 15.4 14.1h14.1c2.5 0 4.2 1.4 4.2 3.4 0 2.1-1.8 3.5-4.2 3.5H31.8l-6.1 6.2h30.4c9.6 0 16.9-6.3 16.9-14.8 0-7.9-6.4-13.8-15.1-13.8H43.9c-2.5 0-4.4-1.3-4.4-3.3 0-2.1 1.9-3.5 4.6-3.5h18.5L69.5 28Z"/>
  <text x="114" y="65" fill="#111820" font-family="Outfit, Arial, Helvetica, sans-serif" font-size="46" font-weight="900" letter-spacing="-1.8">Serplore</text>
</svg>
